<?xml version="1.0" encoding="UTF-8" standalone="no"?>
<!-- Generator: Adobe Illustrator 16.2.1, SVG Export Plug-In . SVG Version: 6.00 Build 0)  -->

<svg
   xmlns:dc="http://purl.org/dc/elements/1.1/"
   xmlns:cc="http://creativecommons.org/ns#"
   xmlns:rdf="http://www.w3.org/1999/02/22-rdf-syntax-ns#"
   xmlns:svg="http://www.w3.org/2000/svg"
   xmlns="http://www.w3.org/2000/svg"
   xmlns:sodipodi="http://sodipodi.sourceforge.net/DTD/sodipodi-0.dtd"
   xmlns:inkscape="http://www.inkscape.org/namespaces/inkscape"
   version="1.1"
   id="Layer_1"
   x="0px"
   y="0px"
   width="24"
   height="24"
   viewBox="0 0 24 24"
   xml:space="preserve"
   inkscape:version="0.91 r13725"
   sodipodi:docname="instagram-white-icon.svg"><metadata
     id="metadata11"><rdf:RDF><cc:Work
         rdf:about=""><dc:format>image/svg+xml</dc:format><dc:type
           rdf:resource="http://purl.org/dc/dcmitype/StillImage" /><dc:title></dc:title></cc:Work></rdf:RDF></metadata><defs
     id="defs9" /><sodipodi:namedview
     pagecolor="#919191"
     bordercolor="#666666"
     borderopacity="1"
     objecttolerance="10"
     gridtolerance="10"
     guidetolerance="10"
     inkscape:pageopacity="0"
     inkscape:pageshadow="2"
     inkscape:window-width="1859"
     inkscape:window-height="993"
     id="namedview7"
     showgrid="false"
     inkscape:zoom="6.320606"
     inkscape:cx="20.104441"
     inkscape:cy="8.7494599"
     inkscape:window-x="76"
     inkscape:window-y="4"
     inkscape:window-maximized="0"
     inkscape:current-layer="Layer_1" /><path
     inkscape:connector-curvature="0"
     style="fill:#ffffff"
     d="m 12.001124,-1.24e-4 c -3.2590335,0 -3.6680378,0.01425 -4.9480511,0.0725 C 5.7755594,0.130876 4.9035504,0.333128 4.1405424,0.629882 3.3512844,0.936385 2.6817774,1.346389 2.0147704,2.013646 1.3472634,2.680653 0.9372594,3.35016 0.6297564,4.139168 0.3322524,4.902426 0.1297504,5.774685 0.0722504,7.051698 0.0150004,8.331712 4e-7,8.740966 4e-7,12 c 0,3.259034 0.0145,3.666788 0.0725,4.946802 0.05875,1.277513 0.261002,2.149522 0.557506,2.91253 0.306753,0.789258 0.716757,1.458765 1.384014,2.125772 0.666757,0.667507 1.336264,1.078511 2.125022,1.385014 0.763508,0.296754 1.635767,0.499006 2.9130305,0.557506 1.2800133,0.05825 1.6887676,0.0725 4.9475511,0.0725 3.259284,0 3.667039,-0.01425 4.947052,-0.0725 1.277513,-0.0585 2.150522,-0.260752 2.91403,-0.557506 0.789009,-0.306503 1.457515,-0.717507 2.124272,-1.385014 0.667507,-0.667007 1.077512,-1.336514 1.385015,-2.125522 0.295003,-0.763258 0.497505,-1.635517 0.557506,-2.91253 C 23.985,15.667038 24,15.259034 24,12 24,8.740966 23.985,8.331962 23.9275,7.051948 23.8675,5.774436 23.664997,4.902427 23.369994,4.139419 23.062491,3.350161 22.652486,2.680654 21.984979,2.013647 21.317473,1.34614 20.649966,0.936136 19.859957,0.629883 19.094949,0.333129 18.22244,0.130877 16.944927,0.072377 c -1.280013,-0.05825 -1.687518,-0.0725 -4.947552,-0.0725 z m -1.076511,2.162523 c 0.319504,-5e-4 0.676007,0 1.076511,0 3.204034,0 3.583788,0.0115 4.849051,0.069 1.170012,0.0535 1.805019,0.249003 2.228023,0.413255 0.560006,0.217502 0.95926,0.477505 1.379014,0.897509 0.420005,0.420004 0.680008,0.820008 0.89801,1.380014 0.164252,0.422505 0.360004,1.057511 0.413254,2.227523 0.0575,1.265014 0.07,1.645018 0.07,4.847551 0,3.202533 -0.0125,3.582537 -0.07,4.84755 -0.0535,1.170013 -0.249002,1.805019 -0.413254,2.227524 -0.217502,0.560006 -0.478005,0.95876 -0.89801,1.378514 -0.420004,0.420004 -0.818758,0.680007 -1.379014,0.897509 -0.422504,0.165002 -1.058011,0.360004 -2.228023,0.413505 -1.265013,0.0575 -1.645017,0.07 -4.849051,0.07 -3.204283,0 -3.5840369,-0.0125 -4.8490501,-0.07 -1.1700125,-0.054 -1.8050185,-0.249503 -2.2282735,-0.413755 -0.560006,-0.217502 -0.96001,-0.477505 -1.380014,-0.897509 -0.420005,-0.420004 -0.680007,-0.819009 -0.89801,-1.379264 -0.164251,-0.422505 -0.360003,-1.057511 -0.413254,-2.227524 -0.0575,-1.265013 -0.069,-1.645017 -0.069,-4.84955 0,-3.204533 0.0115,-3.582537 0.069,-4.847551 0.0535,-1.170012 0.249003,-1.805018 0.413254,-2.228023 0.217503,-0.560006 0.478005,-0.96001 0.89801,-1.380014 0.420004,-0.420005 0.820008,-0.680007 1.380014,-0.898009 0.423005,-0.165002 1.058261,-0.360004 2.2282735,-0.413755 1.1070115,-0.05 1.536016,-0.065 3.7725391,-0.0675 z m 7.482078,1.99252 c -0.795008,0 -1.440015,0.644257 -1.440015,1.439515 0,0.795009 0.645007,1.440015 1.440015,1.440015 0.795008,0 1.440015,-0.645006 1.440015,-1.440015 0,-0.795008 -0.645007,-1.440015 -1.440015,-1.440015 z m -6.405567,1.682518 c -3.403285,0 -6.1625636,2.759279 -6.1625636,6.162564 0,3.403285 2.7592786,6.161314 6.1625636,6.161314 3.403286,0 6.161565,-2.758029 6.161565,-6.161314 0,-3.403285 -2.758529,-6.162564 -6.161815,-6.162564 z m 0,2.162522 c 2.209023,0 4.000042,1.790769 4.000042,4.000042 0,2.209023 -1.791019,4.000042 -4.000042,4.000042 -2.2092726,0 -4.0000413,-1.791019 -4.0000413,-4.000042 0,-2.209273 1.7907687,-4.000042 4.0000413,-4.000042 z"
     id="path28" /></svg>