<?xml version="1.0" encoding="UTF-8" standalone="no"?>
<!-- Created with Inkscape (http://www.inkscape.org/) -->

<svg
   xmlns:dc="http://purl.org/dc/elements/1.1/"
   xmlns:cc="http://creativecommons.org/ns#"
   xmlns:rdf="http://www.w3.org/1999/02/22-rdf-syntax-ns#"
   xmlns:svg="http://www.w3.org/2000/svg"
   xmlns="http://www.w3.org/2000/svg"
   xmlns:xlink="http://www.w3.org/1999/xlink"
   xmlns:sodipodi="http://sodipodi.sourceforge.net/DTD/sodipodi-0.dtd"
   xmlns:inkscape="http://www.inkscape.org/namespaces/inkscape"
   width="196"
   height="196"
   viewBox="0 0 196.00001 196.00001"
   id="svg4154"
   version="1.1"
   inkscape:version="0.91 r13725"
   sodipodi:docname="saludemy_icon.svg">
  <defs
     id="defs4156">
    <linearGradient
       inkscape:collect="always"
       xlink:href="#linearGradient5999"
       id="linearGradient5981"
       gradientUnits="userSpaceOnUse"
       x1="7329.9917"
       y1="-3500.126"
       x2="7442.8589"
       y2="-3626.2039" />
    <linearGradient
       id="linearGradient5999"
       inkscape:collect="always">
      <stop
         id="stop6001"
         offset="0"
         style="stop-color:#00c3e2;stop-opacity:1" />
      <stop
         style="stop-color:#415dbc;stop-opacity:1"
         offset="0.27025762"
         id="stop6029" />
      <stop
         id="stop6003"
         offset="1"
         style="stop-color:#415dbc;stop-opacity:1" />
    </linearGradient>
  </defs>
  <sodipodi:namedview
     id="base"
     pagecolor="#ffffff"
     bordercolor="#666666"
     borderopacity="1.0"
     inkscape:pageopacity="0.0"
     inkscape:pageshadow="2"
     inkscape:zoom="1.4"
     inkscape:cx="105.43372"
     inkscape:cy="62.434241"
     inkscape:document-units="px"
     inkscape:current-layer="layer1"
     showgrid="false"
     units="px"
     inkscape:window-width="1280"
     inkscape:window-height="778"
     inkscape:window-x="214"
     inkscape:window-y="212"
     inkscape:window-maximized="0" />
  <metadata
     id="metadata4159">
    <rdf:RDF>
      <cc:Work
         rdf:about="">
        <dc:format>image/svg+xml</dc:format>
        <dc:type
           rdf:resource="http://purl.org/dc/dcmitype/StillImage" />
        <dc:title></dc:title>
      </cc:Work>
    </rdf:RDF>
  </metadata>
  <g
     inkscape:label="Capa 1"
     inkscape:groupmode="layer"
     id="layer1"
     transform="translate(0,-856.36222)">
    <g
       id="g5275-5-9-3-5-9"
       transform="matrix(1.6973476,0,0,1.6973476,-12438.124,7007.4583)"
       inkscape:export-xdpi="90"
       inkscape:export-ydpi="90">
      <rect
         ry="13.297103"
         rx="13.297103"
         y="-3623.946"
         x="7327.9771"
         height="115.47429"
         width="115.47429"
         id="rect4873-9-6-7-6-7-7"
         style="opacity:1;fill:url(#linearGradient5981);fill-opacity:1;fill-rule:nonzero;stroke:none;stroke-width:1.99999988;stroke-linecap:round;stroke-linejoin:bevel;stroke-miterlimit:4;stroke-dasharray:none;stroke-dashoffset:0;stroke-opacity:1" />
      <path
         id="flowRoot3336-9-8-0-1-60-2-5-91-8-1-1"
         d="m 7385.0104,-3614.4533 a 7.4213169,7.4213169 0 0 0 -7.4208,7.4206 7.4213169,7.4213169 0 0 0 3.5132,6.2992 l 0,5.2516 c -12.9713,1.2988 -22.0313,7.8563 -22.0313,19.6375 0,23.7822 35.802,17.2958 35.802,26.7222 0,2.9404 -3.3712,4.5833 -8.4733,4.5833 -1.9891,0 -4.1521,-0.5176 -5.7951,-1.5554 -1.7301,-1.0378 -2.9411,-2.6823 -3.3741,-4.9307 l -19.5425,0 c 0.3943,10.2596 9.3624,19.1469 23.4143,20.623 l 0,2.9297 0,2.4955 0,4.0944 c 0,5.6584 8.2984,5.7542 8.2984,0 l 0,-3.0581 0,-3.5318 0,-2.8731 c 14.8888,-1.0657 25.0177,-8.0363 25.0177,-21.2837 0,-22.6579 -35.8038,-16.865 -35.8038,-26.2049 0,-2.2486 1.989,-3.545 6.4861,-3.545 1.9891,0 3.8061,0.3467 5.2761,1.125 1.4701,0.7783 2.5951,2.0759 2.9411,4.2379 l 19.3715,0 c -1.3715,-10.1662 -8.3177,-18.5229 -23.2887,-19.5981 l 0,-5.4459 a 7.4213169,7.4213169 0 0 0 3.0319,-5.9726 7.4213169,7.4213169 0 0 0 -7.4227,-7.4206 z m 15.8776,27.3413 a 2.2436541,2.2436541 0 0 1 2.2442,2.2445 2.2436541,2.2436541 0 0 1 -2.2442,2.2444 2.2436541,2.2436541 0 0 1 -2.2423,-2.2444 2.2436541,2.2436541 0 0 1 2.2423,-2.2445 z"
         style="font-style:normal;font-weight:normal;font-size:55.92411804px;line-height:97.00000286%;font-family:sans-serif;letter-spacing:0px;word-spacing:0px;fill:#ffffff;fill-opacity:1;stroke:none;stroke-width:1px;stroke-linecap:butt;stroke-linejoin:miter;stroke-opacity:1"
         inkscape:connector-curvature="0" />
    </g>
  </g>
</svg>
