<?xml version="1.0" encoding="UTF-8" standalone="no"?>
<!-- Generator: Adobe Illustrator 16.2.1, SVG Export Plug-In . SVG Version: 6.00 Build 0)  -->

<svg
   xmlns:dc="http://purl.org/dc/elements/1.1/"
   xmlns:cc="http://creativecommons.org/ns#"
   xmlns:rdf="http://www.w3.org/1999/02/22-rdf-syntax-ns#"
   xmlns:svg="http://www.w3.org/2000/svg"
   xmlns="http://www.w3.org/2000/svg"
   xmlns:sodipodi="http://sodipodi.sourceforge.net/DTD/sodipodi-0.dtd"
   xmlns:inkscape="http://www.inkscape.org/namespaces/inkscape"
   version="1.1"
   id="Layer_1"
   x="0px"
   y="0px"
   width="24"
   height="24"
   viewBox="0 0 24 24"
   xml:space="preserve"
   inkscape:version="0.91 r13725"
   sodipodi:docname="youtube-white-icon.svg"><metadata
     id="metadata11"><rdf:RDF><cc:Work
         rdf:about=""><dc:format>image/svg+xml</dc:format><dc:type
           rdf:resource="http://purl.org/dc/dcmitype/StillImage" /><dc:title></dc:title></cc:Work></rdf:RDF></metadata><defs
     id="defs9" /><sodipodi:namedview
     pagecolor="#919191"
     bordercolor="#666666"
     borderopacity="1"
     objecttolerance="10"
     gridtolerance="10"
     guidetolerance="10"
     inkscape:pageopacity="0"
     inkscape:pageshadow="2"
     inkscape:window-width="1859"
     inkscape:window-height="993"
     id="namedview7"
     showgrid="false"
     inkscape:zoom="8.9386867"
     inkscape:cx="20.104441"
     inkscape:cy="8.7494599"
     inkscape:window-x="76"
     inkscape:window-y="4"
     inkscape:window-maximized="0"
     inkscape:current-layer="Layer_1" /><g
     id="g3"
     transform="matrix(0.04688147,0,0,0.04688147,2.9314893e-4,-0.00215693)"><path
       d="m 508.6,148.8 c 0,-45 -33.1,-81.2 -74,-81.2 C 379.2,65 322.7,64 265,64 c -3,0 -6,0 -9,0 -3,0 -6,0 -9,0 C 189.4,64 132.8,65 77.4,67.6 36.6,67.6 3.5,104 3.5,149 1,184.6 -0.1,220.2 0,255.8 c -0.1,35.6 1,71.2 3.4,106.9 0,45 33.1,81.5 73.9,81.5 58.2,2.7 117.9,3.9 178.6,3.8 60.8,0.2 120.3,-1 178.6,-3.8 40.9,0 74,-36.5 74,-81.5 2.4,-35.7 3.5,-71.3 3.4,-107 0.2,-35.6 -0.9,-71.2 -3.3,-106.9 z M 207,353.9 l 0,-196.5 145,98.2 -145,98.3 z"
       id="path5"
       style="fill:#ffffff"
       inkscape:connector-curvature="0" /></g></svg>